<svg width="48" height="48" viewBox="0 0 48 48" fill="none" xmlns="http://www.w3.org/2000/svg">
<g clip-path="url(#clip0_47_47)">
<path d="M39.086 23.52C38.804 22.666 38.458 21.832 38.054 21.036L33.146 23.248C33.58 24.034 33.926 24.868 34.18 25.732L39.086 23.52ZM13.942 21.712C14.484 21.004 15.1 20.364 15.778 19.798L11.998 15.862C11.342 16.448 10.724 17.09 10.16 17.776L13.942 21.712ZM17.37 18.684C18.13 18.242 18.932 17.892 19.766 17.638L17.7 12.5C16.876 12.784 16.074 13.134 15.3 13.548L17.37 18.684ZM11.852 25.914C12.094 25.044 12.426 24.206 12.848 23.414L7.908 21.282C7.516 22.088 7.18 22.928 6.912 23.782L11.852 25.914ZM30.72 13.514C29.946 13.104 29.14 12.756 28.32 12.476L26.274 17.622C27.11 17.872 27.914 18.22 28.674 18.66L30.72 13.514ZM35.922 17.776C35.36 17.092 34.742 16.448 34.086 15.862L30.304 19.798C30.984 20.364 31.6 21.006 32.142 21.712L35.922 17.776ZM24.34 11.656C23.902 11.622 23.466 11.604 23.044 11.604C22.618 11.604 22.18 11.622 21.744 11.656V17.224C22.176 17.174 22.612 17.148 23.044 17.148C23.474 17.148 23.912 17.174 24.34 17.224V11.656ZM47 28C47 14.746 36.254 4 23 4C9.746 4 -1 14.746 -1 28C-1 33.166 0.632 38.084 3.41 42H42.59C45.368 38.084 47 33.166 47 28ZM28.84 38C28.826 35.828 27.628 33.938 25.848 32.956L23.044 19.814L20.24 32.956C18.462 33.938 17.262 35.828 17.248 38H5.606C3.916 35 3 31.516 3 28C3 16.972 11.972 8 23 8C34.028 8 43 16.972 43 28C43 31.516 42.084 35 40.394 38H28.84Z" fill="#DB2D37"/>
</g>
<defs>
<clipPath id="clip0_47_47">
<rect width="48" height="48" fill="white"/>
</clipPath>
</defs>
</svg>
