<svg width="48" height="48" viewBox="0 0 48 48" fill="none" xmlns="http://www.w3.org/2000/svg">
<path d="M24 4C35.028 4 44 12.972 44 24C44 35.028 35.028 44 24 44C12.972 44 4 35.028 4 24C4 12.972 12.972 4 24 4ZM24 0C10.746 0 0 10.746 0 24C0 37.254 10.746 48 24 48C37.254 48 48 37.254 48 24C48 10.746 37.254 0 24 0ZM24 12C17.374 12 12 17.372 12 24C12 29.302 15.438 33.8 20.208 35.386C20.808 35.498 21 35.126 21 34.808V32.574C17.662 33.3 16.966 31.16 16.966 31.16C16.422 29.774 15.634 29.404 15.634 29.404C14.546 28.658 15.716 28.674 15.716 28.674C16.922 28.758 17.556 29.912 17.556 29.912C18.626 31.746 20.362 31.216 21.048 30.91C21.156 30.134 21.466 29.606 21.81 29.306C19.144 29.002 16.344 27.972 16.344 23.376C16.344 22.066 16.812 20.996 17.58 20.156C17.456 19.85 17.044 18.628 17.696 16.976C17.696 16.976 18.704 16.654 20.996 18.206C21.954 17.94 22.98 17.808 24 17.802C25.02 17.806 26.046 17.94 27.006 18.206C29.298 16.654 30.302 16.976 30.302 16.976C30.956 18.628 30.544 19.85 30.422 20.152C31.192 20.992 31.656 22.062 31.656 23.372C31.656 27.982 28.848 28.996 26.176 29.292C26.608 29.664 27 30.394 27 31.514V34.806C27 35.126 27.192 35.5 27.8 35.382C32.566 33.796 36 29.3 36 24C36 17.372 30.626 12 24 12V12Z" fill="white"/>
</svg>
