<svg width="48" height="48" viewBox="0 0 48 48" fill="none" xmlns="http://www.w3.org/2000/svg">
<path d="M24 4C35.028 4 44 12.972 44 24C44 35.028 35.028 44 24 44C12.972 44 4 35.028 4 24C4 12.972 12.972 4 24 4ZM24 0C10.746 0 0 10.746 0 24C0 37.254 10.746 48 24 48C37.254 48 48 37.254 48 24C48 10.746 37.254 0 24 0ZM20 16C20 17.114 19.106 18.016 18 18.016C16.894 18.016 16 17.116 16 16C16 14.886 16.894 13.984 18 13.984C19.106 13.984 20 14.888 20 16V16ZM20 20H16V32H20V20ZM26 20H22V32H26V26.278C26 22.834 30.004 22.516 30.004 26.278V32H34V25.282C34 18.714 27.744 18.954 26 22.186V20Z" fill="white"/>
</svg>
