<svg width="48" height="48" viewBox="0 0 48 48" fill="none" xmlns="http://www.w3.org/2000/svg">
<g clip-path="url(#clip0_21_80)">
<path d="M24 4.04004C35.028 4.04004 44 13.012 44 24.04C44 35.068 35.028 44.04 24 44.04C12.972 44.04 4 35.068 4 24.04C4 13.012 12.972 4.04004 24 4.04004V4.04004ZM24 0.0400391C10.746 0.0400391 0 10.786 0 24.04C0 37.294 10.746 48.04 24 48.04C37.254 48.04 48 37.294 48 24.04C48 10.786 37.254 0.0400391 24 0.0400391V0.0400391ZM24 25.14L12.016 16H35.982L24 25.14ZM24 27.716L12 18.458V32H36V18.458L24 27.716V27.716Z" fill="white"/>
</g>
<defs>
<clipPath id="clip0_21_80">
<rect width="48" height="48" fill="white"/>
</clipPath>
</defs>
</svg>
