<svg width="48" height="48" viewBox="0 0 48 48" fill="none" xmlns="http://www.w3.org/2000/svg">
<g clip-path="url(#clip0_46_31)">
<path fill-rule="evenodd" clip-rule="evenodd" d="M10.5 34.644L6 32.202L10.468 26.068L6 22.148L15.426 17.024C15.834 17.486 16.246 18.032 16.634 18.638L9.466 22.534L11.828 24.608L17.944 21.236C18.182 21.864 18.376 22.518 18.508 23.19L11.986 26.792L24.022 33.01L36 26.8L29.696 23.31C29.818 22.616 29.984 21.976 30.192 21.374L36.058 24.604L38.526 22.414L31.526 18.704C31.892 18.154 32.302 17.624 32.754 17.098L42 21.996L37.478 26.012L37.5 26.024L42 32.186L37.5 34.634V40.808L24 48L10.5 40.808V34.644ZM24.992 34.456V45.21L35.502 39.612V35.72L28.5 39.53L24.992 34.456ZM12.498 35.728V39.612L22.994 45.204V34.458L19.5 39.53L12.498 35.728ZM8.954 31.536L18.874 36.92L21.072 33.732L11.106 28.582L8.954 31.536ZM26.93 33.75L29.122 36.92L39.044 31.524L36.898 28.582L26.93 33.75ZM24.546 27.92H23.504C23.232 27.92 22.968 27.828 22.788 27.666L21.404 26.756H26.646L25.262 27.666C25.084 27.828 24.82 27.92 24.546 27.92ZM26.696 25.592H21.386C21.064 25.592 20.804 25.334 20.804 25.012C20.804 24.69 21.064 24.43 21.386 24.43H26.696C27.018 24.43 27.278 24.69 27.278 25.012C27.278 25.334 27.018 25.592 26.696 25.592ZM27.27 23.266H20.78C20.78 18.672 17.036 16.684 17.036 12.532C17.036 8.2 20.528 5.816 24.022 5.816C27.518 5.816 31.016 8.204 31.016 12.532C31.016 16.684 27.272 18.608 27.27 23.266ZM25.468 21.272C25.844 19.364 26.716 17.894 27.504 16.56C28.352 15.132 29.018 14.002 29.018 12.532C29.018 9.432 26.504 7.81 24.022 7.81C21.544 7.81 19.032 9.432 19.032 12.532C19.032 14.01 19.706 15.156 20.558 16.602C21.342 17.93 22.202 19.394 22.582 21.272H25.468ZM14.754 12.63H11.21V10.636H14.846C14.768 11.074 14.728 11.526 14.728 11.984L14.754 12.63ZM36.84 12.63H33.318L33.346 11.984C33.346 11.526 33.306 11.074 33.226 10.636H36.84V12.63ZM16.874 6.608C16.42 7.102 16.026 7.644 15.706 8.226L12.828 6.184L13.984 4.558L16.874 6.608ZM31.192 6.598L34.066 4.558L35.222 6.184L32.362 8.214C32.04 7.634 31.646 7.092 31.192 6.598ZM20.592 4.158C19.956 4.388 19.354 4.68 18.794 5.024L17.25 1.874L19.044 0.998L20.592 4.158ZM27.462 4.15L29.008 0.998L30.8 1.874L29.262 5.014C28.702 4.67 28.1 4.378 27.462 4.15ZM25.024 3.608C24.7 3.576 24.37 3.56 24.036 3.56C23.696 3.56 23.358 3.578 23.026 3.61V0H25.024V3.608Z" fill="#DB2D37"/>
</g>
<defs>
<clipPath id="clip0_46_31">
<rect width="48" height="48" fill="white"/>
</clipPath>
</defs>
</svg>
