<svg width="48" height="48" viewBox="0 0 48 48" fill="none" xmlns="http://www.w3.org/2000/svg">
<path d="M24 31.3953C23.4185 31.3953 22.9476 31.9109 22.9476 32.547C22.9476 33.183 23.4186 33.6989 24 33.6989C24.5817 33.6989 25.0531 33.183 25.0531 32.547C25.0531 31.9109 24.5817 31.3953 24 31.3953Z" fill="#DB2D37"/>
<path d="M47.0204 0H0.979592C0.438563 0 0 0.479685 0 1.07144V36.1565C0 36.7481 0.438563 37.2279 0.979592 37.2279H18.0941L16.3806 41.7741H13.1597C12.6188 41.7741 12.1801 42.2539 12.1801 42.8455V46.9286C12.1801 47.5203 12.6188 48 13.1597 48H34.8404C35.3813 48 35.82 47.5203 35.82 46.9286V42.8455C35.82 42.2539 35.3813 41.7741 34.8404 41.7741H31.6196L29.906 37.2279H47.0204C47.5613 37.2279 48 36.7481 48 36.1565V1.07144C48 0.479578 47.5613 0 47.0204 0ZM46.0408 2.14289V27.9541H1.95918V2.14289H46.0408ZM33.8608 45.8571H14.1393V43.9169H33.8608V45.8571ZM29.5003 41.7741H18.4998L20.2133 37.2279H27.7867L29.5003 41.7741ZM1.95918 35.085V30.0969H46.0408V35.085H1.95918Z" fill="#DB2D37"/>
<path d="M31.661 15.0094C31.661 14.4178 31.2224 13.938 30.6813 13.9381L29.6367 13.9382C29.5776 13.5661 29.4901 13.2047 29.3736 12.8582L30.2769 12.2877C30.7453 11.9917 30.9059 11.3364 30.6352 10.824C30.3645 10.3117 29.7656 10.1358 29.2971 10.432L28.3912 11.0044C28.1724 10.7184 27.9308 10.4542 27.6694 10.2148L28.1927 9.22405C28.4633 8.71169 28.3029 8.05628 27.8344 7.76035C27.366 7.4642 26.7669 7.63981 26.4962 8.15218L25.9746 9.14005C25.6578 9.01265 25.3274 8.91676 24.9872 8.85204V7.70999C24.9872 7.11823 24.5486 6.63855 24.0076 6.63855C24.0051 6.63855 24.0026 6.63898 24.0001 6.63898C23.9977 6.63898 23.9951 6.63855 23.9927 6.63855C23.4518 6.63855 23.0131 7.11823 23.0131 7.70999V8.85194C22.6729 8.91665 22.3425 9.01244 22.0257 9.13994L21.504 8.15207C21.2334 7.63971 20.6343 7.4641 20.1658 7.76024C19.6974 8.05618 19.5369 8.71158 19.8076 9.22394L20.3309 10.2147C20.0694 10.4541 19.8279 10.7183 19.6091 11.0043L18.7032 10.4319C18.2346 10.1357 17.6357 10.3116 17.3651 10.8239C17.0944 11.3363 17.255 11.9916 17.7234 12.2876L18.6267 12.8581C18.5102 13.2046 18.4226 13.566 18.3636 13.9381L17.3189 13.938C16.7779 13.9379 16.3392 14.4177 16.3392 15.0093C16.3392 15.6011 16.7779 16.0807 17.3189 16.0807L18.3636 16.0806C18.4225 16.4526 18.5102 16.814 18.6267 17.1605L17.7234 17.7311C17.255 18.0271 17.0944 18.6823 17.3651 19.1948C17.6357 19.707 18.2346 19.8829 18.7032 19.5867L19.6091 19.0144C19.8279 19.3004 20.0694 19.5647 20.3309 19.8039L19.8076 20.7948C19.5369 21.3071 19.6974 21.9624 20.1658 22.2584C20.6343 22.5545 21.2334 22.3789 21.504 21.8666L22.0257 20.8787C22.3425 21.0061 22.6729 21.1021 23.0131 21.1667V22.3086C23.0131 22.9004 23.4518 23.3801 23.9927 23.3801C23.9951 23.3801 23.9977 23.3796 24.0001 23.3796C24.0026 23.3796 24.0051 23.3801 24.0076 23.3801C24.5486 23.3801 24.9872 22.9004 24.9872 22.3086V21.1667C25.3274 21.1021 25.6578 21.0062 25.9746 20.8787L26.4962 21.8666C26.7669 22.3789 27.366 22.5545 27.8344 22.2584C28.3029 21.9624 28.4633 21.3071 28.1927 20.7948L27.6694 19.8039C27.9308 19.5647 28.1724 19.3004 28.3912 19.0144L29.2971 19.5867C29.7656 19.8829 30.3646 19.707 30.6352 19.1948C30.9059 18.6823 30.7453 18.0271 30.2769 17.7311L29.3736 17.1605C29.4901 16.814 29.5776 16.4526 29.6367 16.0806L30.6813 16.0807C31.2224 16.0809 31.661 15.6012 31.661 15.0094ZM24.0075 19.1178C24.005 19.1178 24.0025 19.1175 24 19.1175C23.9976 19.1175 23.995 19.1178 23.9926 19.1178C21.9216 19.1178 20.2368 17.2749 20.2368 15.0094C20.2368 12.7441 21.9216 10.9011 23.9926 10.9011C23.995 10.9011 23.9976 10.9013 24 10.9013C24.0025 10.9013 24.005 10.9011 24.0075 10.9011C26.0784 10.9011 27.7632 12.7441 27.7632 15.0094C27.7632 17.2748 26.0784 19.1178 24.0075 19.1178Z" fill="#DB2D37"/>
</svg>
