<svg width="120" height="28" viewBox="0 0 120 28" fill="none" xmlns="http://www.w3.org/2000/svg">
<path d="M18.4062 23.8711L0.617188 15.9785V12.9551L18.4062 4.06055V9.28125L7.49023 14.2559L18.4062 18.6855V23.8711ZM56.6914 27H47.5859L38.1992 8.89453H38.041C38.0996 9.44531 38.1523 10.1074 38.1992 10.8809C38.2461 11.6543 38.2871 12.4453 38.3223 13.2539C38.3574 14.0508 38.375 14.7715 38.375 15.416V27H32.2227V1.30078H41.293L50.6445 19.1602H50.75C50.7148 18.5977 50.6797 17.9473 50.6445 17.209C50.6094 16.459 50.5742 15.7031 50.5391 14.9414C50.5156 14.1797 50.5039 13.5059 50.5039 12.9199V1.30078H56.6914V27ZM62.2461 1.30078H71.2109C74.9258 1.30078 77.5742 1.85156 79.1562 2.95312C80.7383 4.05469 81.5293 5.63672 81.5293 7.69922C81.5293 8.82422 81.3242 9.7793 80.9141 10.5645C80.5156 11.3496 80.0059 11.9707 79.3848 12.4277C78.7754 12.8848 78.1484 13.1953 77.5039 13.3594V13.5352C78.207 13.7109 78.9043 14.0039 79.5957 14.4141C80.2988 14.8125 80.8789 15.416 81.3359 16.2246C81.8047 17.0215 82.0391 18.1055 82.0391 19.4766C82.0391 21.0352 81.6406 22.377 80.8438 23.502C80.0586 24.627 78.9336 25.4941 77.4688 26.1035C76.0039 26.7012 74.2637 27 72.248 27H62.2461V1.30078ZM69.1895 11.1621H71.2812C72.4297 11.1621 73.2383 10.9277 73.707 10.459C74.1758 9.97852 74.4102 9.39844 74.4102 8.71875C74.4102 8.01562 74.1406 7.48242 73.6016 7.11914C73.0742 6.74414 72.2539 6.55664 71.1406 6.55664H69.1895V11.1621ZM69.1895 16.2422V21.6387H71.6328C72.8398 21.6387 73.6836 21.3809 74.1641 20.8652C74.6445 20.3379 74.8848 19.6816 74.8848 18.8965C74.8848 18.4395 74.7793 18.0117 74.5684 17.6133C74.3691 17.2031 74.0234 16.875 73.5312 16.6289C73.0391 16.3711 72.3594 16.2422 71.4922 16.2422H69.1895ZM99.5645 0.931641L89.9844 27.3516H83.9023L93.4824 0.931641H99.5645ZM101.27 18.6855L112.186 14.2559L101.27 9.28125V4.06055L119.059 12.9551V15.9785L101.27 23.8711V18.6855Z" fill="#DB2D37"/>
</svg>
